<?xml version="1.0" encoding="UTF-8"?>
<svg xmlns="http://www.w3.org/2000/svg" xmlns:xlink="http://www.w3.org/1999/xlink" width="375pt" height="374.999991pt" viewBox="0 0 375 374.999991" version="1.2">
<defs>
<clipPath id="clip1">
  <path d="M 3.324219 37.5 L 371.574219 37.5 L 371.574219 343.5 L 3.324219 343.5 Z M 3.324219 37.5 "/>
</clipPath>
</defs>
<g id="surface1">
<g clip-path="url(#clip1)" clip-rule="nonzero">
<path style=" stroke:none;fill-rule:nonzero;fill:rgb(54.899597%,32.159424%,100%);fill-opacity:1;" d="M 123.4375 40.058594 C 123.039062 38.460938 121.519531 37.5 119.921875 37.898438 C 118.882812 38.140625 118.003906 39.019531 117.765625 40.058594 C 112.652344 59.238281 100.023438 94.640625 72.214844 116.296875 C 52.875 131.320312 30.261719 141.710938 6.289062 146.585938 C 4.691406 146.90625 3.652344 148.425781 3.972656 150.023438 C 4.210938 151.140625 5.011719 151.941406 6.046875 152.261719 C 25.546875 157.695312 59.429688 169.601562 76.609375 189.820312 C 90.195312 205.804688 102.261719 245.84375 107.535156 265.421875 C 108.015625 266.941406 109.613281 267.898438 111.132812 267.417969 C 112.089844 267.179688 112.890625 266.378906 113.128906 265.421875 C 118.5625 245.523438 132.628906 204.367188 158.917969 186.863281 C 182.414062 171.199219 208.542969 163.367188 223.328125 159.851562 C 224.925781 159.453125 225.804688 157.855469 225.40625 156.253906 C 225.164062 155.296875 224.445312 154.496094 223.488281 154.257812 C 205.667969 148.984375 172.503906 137.074219 158.917969 119.253906 C 137.824219 91.601562 127.753906 58.277344 123.4375 40.058594 Z M 271.195312 204.285156 C 270.953125 203.328125 269.996094 202.765625 269.039062 203.007812 C 268.398438 203.167969 267.917969 203.644531 267.757812 204.285156 C 264.640625 216.035156 256.890625 237.691406 239.871094 250.875 C 228.042969 260.066406 214.21875 266.378906 199.515625 269.335938 C 198.554688 269.496094 197.914062 270.457031 198.15625 271.414062 C 198.316406 272.054688 198.796875 272.613281 199.433594 272.773438 C 211.339844 276.128906 232.117188 283.324219 242.585938 295.710938 C 250.898438 305.460938 258.25 329.992188 261.527344 341.980469 C 261.765625 342.941406 262.804688 343.5 263.683594 343.261719 C 264.324219 343.101562 264.722656 342.621094 264.960938 341.980469 C 268.316406 329.835938 276.867188 304.660156 292.929688 293.953125 C 307.316406 284.363281 323.296875 279.566406 332.328125 277.410156 C 333.285156 277.167969 333.84375 276.210938 333.605469 275.25 C 333.445312 274.613281 332.964844 274.132812 332.40625 273.972656 C 321.457031 270.695312 301.242188 263.503906 292.929688 252.554688 C 279.984375 235.851562 273.832031 215.472656 271.195312 204.285156 Z M 329.609375 70.664062 C 329.449219 70.027344 328.8125 69.625 328.171875 69.785156 C 327.773438 69.867188 327.453125 70.1875 327.292969 70.664062 C 325.214844 78.496094 320.101562 92.800781 308.753906 101.59375 C 300.921875 107.667969 291.730469 111.902344 281.984375 113.898438 C 281.34375 114.058594 280.945312 114.621094 281.023438 115.257812 C 281.105469 115.738281 281.421875 116.058594 281.902344 116.136719 C 289.8125 118.375 303.558594 123.171875 310.589844 131.402344 C 316.105469 137.875 320.980469 154.179688 323.136719 162.089844 C 323.296875 162.730469 323.9375 163.046875 324.574219 162.890625 C 324.976562 162.808594 325.292969 162.488281 325.375 162.089844 C 327.613281 154.019531 333.285156 137.316406 343.992188 130.203125 C 353.503906 123.808594 364.132812 120.691406 370.203125 119.253906 C 370.84375 119.09375 371.242188 118.457031 371.082031 117.816406 C 371.003906 117.417969 370.683594 117.097656 370.285156 116.9375 C 363.011719 114.777344 349.585938 109.984375 344.074219 102.710938 C 335.523438 91.601562 331.367188 78.097656 329.609375 70.664062 Z M 329.609375 70.664062 "/>
</g>
</g>
</svg>
