<?xml version="1.0" encoding="UTF-8"?>
<svg xmlns="http://www.w3.org/2000/svg" xmlns:xlink="http://www.w3.org/1999/xlink" width="375pt" height="374.999991pt" viewBox="0 0 375 374.999991" version="1.2">
<g id="surface1">
<path style=" stroke:none;fill-rule:nonzero;fill:rgb(58.81958%,47.839355%,86.268616%);fill-opacity:1;" d="M 188.167969 169.9375 C 197.90625 169.9375 205.765625 177.78125 205.765625 187.5 C 205.765625 197.21875 197.90625 205.0625 188.167969 205.0625 C 178.488281 205.0625 170.570312 197.21875 170.570312 187.5 C 170.570312 177.78125 178.488281 169.9375 188.167969 169.9375 Z M 188.167969 169.9375 "/>
<path style=" stroke:none;fill-rule:nonzero;fill:rgb(67.449951%,57.249451%,92.549133%);fill-opacity:1;" d="M 235.09375 187.5 C 235.09375 194.757812 233.453125 201.667969 230.460938 207.8125 C 229.992188 208.871094 229.398438 209.921875 228.816406 210.914062 C 221.074219 224.261719 206.9375 233.453125 190.574219 234.273438 C 189.753906 234.332031 188.988281 234.332031 188.167969 234.332031 C 171.332031 234.332031 156.605469 225.492188 148.339844 212.261719 C 148.046875 211.851562 147.804688 211.382812 147.519531 210.914062 C 143.53125 204.066406 141.242188 196.046875 141.242188 187.5 C 141.242188 180.242188 142.878906 173.332031 145.875 167.1875 C 146.339844 166.128906 146.933594 165.078125 147.519531 164.085938 C 155.257812 150.738281 169.390625 141.546875 185.761719 140.726562 C 186.585938 140.667969 187.339844 140.667969 188.167969 140.667969 C 204.996094 140.667969 219.726562 149.507812 227.996094 162.738281 C 228.289062 163.148438 228.523438 163.617188 228.816406 164.085938 C 232.800781 170.933594 235.09375 178.953125 235.09375 187.5 Z M 205.765625 187.5 C 205.765625 177.78125 197.90625 169.9375 188.167969 169.9375 C 178.488281 169.9375 170.570312 177.78125 170.570312 187.5 C 170.570312 197.21875 178.488281 205.0625 188.167969 205.0625 C 197.90625 205.0625 205.765625 197.21875 205.765625 187.5 Z M 205.765625 187.5 "/>
<path style=" stroke:none;fill-rule:nonzero;fill:rgb(0%,0%,0%);fill-opacity:1;" d="M 188.164062 240.183594 C 159.050781 240.183594 135.371094 216.550781 135.371094 187.5 C 135.371094 158.453125 159.050781 134.816406 188.164062 134.816406 C 217.273438 134.816406 240.953125 158.453125 240.953125 187.5 C 240.953125 216.550781 217.273438 240.183594 188.164062 240.183594 Z M 188.164062 146.523438 C 165.527344 146.523438 147.101562 164.90625 147.101562 187.5 C 147.101562 210.089844 165.527344 228.476562 188.164062 228.476562 C 210.796875 228.476562 229.222656 210.089844 229.222656 187.5 C 229.222656 164.90625 210.796875 146.523438 188.164062 146.523438 Z M 188.164062 146.523438 "/>
<path style=" stroke:none;fill-rule:nonzero;fill:rgb(0%,0%,0%);fill-opacity:1;" d="M 188.164062 210.914062 C 175.222656 210.914062 164.699219 200.414062 164.699219 187.5 C 164.699219 174.585938 175.222656 164.085938 188.164062 164.085938 C 201.101562 164.085938 211.625 174.585938 211.625 187.5 C 211.625 200.414062 201.101562 210.914062 188.164062 210.914062 Z M 188.164062 175.792969 C 181.691406 175.792969 176.429688 181.042969 176.429688 187.5 C 176.429688 193.957031 181.691406 199.207031 188.164062 199.207031 C 194.632812 199.207031 199.894531 193.957031 199.894531 187.5 C 199.894531 181.042969 194.632812 175.792969 188.164062 175.792969 Z M 188.164062 175.792969 "/>
<path style=" stroke:none;fill-rule:nonzero;fill:rgb(0%,0%,0%);fill-opacity:1;" d="M 188.164062 240.183594 C 184.917969 240.183594 182.296875 237.566406 182.296875 234.332031 C 182.296875 231.09375 184.917969 228.476562 188.164062 228.476562 C 239.910156 228.476562 282.015625 186.457031 282.015625 134.816406 C 282.015625 131.585938 284.636719 128.960938 287.878906 128.960938 C 291.125 128.960938 293.746094 131.585938 293.746094 134.816406 C 293.746094 192.914062 246.378906 240.183594 188.164062 240.183594 Z M 188.164062 240.183594 "/>
<path style=" stroke:none;fill-rule:nonzero;fill:rgb(0%,0%,0%);fill-opacity:1;" d="M 287.878906 140.667969 C 284.636719 140.667969 282.015625 138.046875 282.015625 134.816406 C 282.015625 67.027344 226.753906 11.886719 158.835938 11.886719 C 155.589844 11.886719 152.96875 9.261719 152.96875 6.03125 C 152.96875 2.800781 155.589844 0.179688 158.835938 0.179688 C 233.230469 0.179688 293.746094 60.578125 293.746094 134.816406 C 293.746094 138.046875 291.125 140.667969 287.878906 140.667969 Z M 287.878906 140.667969 "/>
<path style=" stroke:none;fill-rule:nonzero;fill:rgb(0%,0%,0%);fill-opacity:1;" d="M 88.445312 246.042969 C 85.203125 246.042969 82.582031 243.425781 82.582031 240.191406 C 82.582031 182.078125 129.945312 134.804688 188.164062 134.804688 C 191.40625 134.804688 194.027344 137.425781 194.027344 140.65625 C 194.027344 143.890625 191.40625 146.511719 188.164062 146.511719 C 136.414062 146.511719 94.3125 188.535156 94.3125 240.191406 C 94.3125 243.425781 91.691406 246.042969 88.445312 246.042969 Z M 88.445312 246.042969 "/>
<path style=" stroke:none;fill-rule:nonzero;fill:rgb(0%,0%,0%);fill-opacity:1;" d="M 217.492188 374.820312 C 143.097656 374.820312 82.582031 314.429688 82.582031 240.183594 C 82.582031 236.945312 85.203125 234.332031 88.445312 234.332031 C 91.691406 234.332031 94.3125 236.945312 94.3125 240.183594 C 94.3125 307.964844 149.570312 363.113281 217.492188 363.113281 C 220.734375 363.113281 223.355469 365.730469 223.355469 368.96875 C 223.355469 372.203125 220.734375 374.820312 217.492188 374.820312 Z M 217.492188 374.820312 "/>
<path style=" stroke:none;fill-rule:nonzero;fill:rgb(0%,0%,0%);fill-opacity:1;" d="M 228.800781 216.769531 C 227.804688 216.769531 226.792969 216.515625 225.875 215.984375 C 223.0625 214.367188 222.101562 210.785156 223.726562 207.988281 C 236.273438 186.304688 239.609375 161.0625 233.128906 136.90625 C 226.640625 112.753906 211.101562 92.558594 189.375 80.035156 C 186.566406 78.421875 185.605469 74.835938 187.230469 72.039062 C 188.847656 69.234375 192.445312 68.277344 195.242188 69.898438 C 219.683594 83.980469 237.160156 106.707031 244.460938 133.878906 C 251.757812 161.058594 248.003906 189.457031 233.890625 213.84375 C 232.792969 215.722656 230.824219 216.769531 228.800781 216.769531 Z M 228.800781 216.769531 "/>
<path style=" stroke:none;fill-rule:nonzero;fill:rgb(0%,0%,0%);fill-opacity:1;" d="M 16.023438 127.96875 C 15.023438 127.96875 14.015625 127.714844 13.09375 127.183594 C 10.285156 125.566406 9.324219 121.984375 10.949219 119.1875 C 28.980469 88.015625 58.066406 65.730469 92.863281 56.421875 C 127.644531 47.125 164.007812 51.902344 195.238281 69.898438 C 198.046875 71.511719 199.007812 75.09375 197.382812 77.894531 C 195.757812 80.691406 192.164062 81.652344 189.371094 80.035156 C 160.859375 63.597656 127.65625 59.230469 95.894531 67.726562 C 64.132812 76.21875 37.574219 96.574219 21.109375 125.035156 C 20.023438 126.917969 18.050781 127.96875 16.023438 127.96875 Z M 16.023438 127.96875 "/>
<path style=" stroke:none;fill-rule:nonzero;fill:rgb(0%,0%,0%);fill-opacity:1;" d="M 184.027344 305.882812 C 183.03125 305.882812 182.019531 305.628906 181.101562 305.097656 C 130.671875 276.03125 113.332031 211.464844 142.441406 161.152344 C 144.050781 158.347656 147.652344 157.386719 150.453125 159.007812 C 153.261719 160.625 154.222656 164.207031 152.597656 167.003906 C 126.726562 211.730469 142.140625 269.125 186.960938 294.953125 C 189.769531 296.566406 190.730469 300.152344 189.105469 302.949219 C 188.027344 304.832031 186.058594 305.882812 184.027344 305.882812 Z M 184.027344 305.882812 "/>
<path style=" stroke:none;fill-rule:nonzero;fill:rgb(0%,0%,0%);fill-opacity:1;" d="M 248.328125 323.101562 C 225.449219 323.101562 202.289062 317.300781 181.09375 305.089844 C 178.285156 303.476562 177.324219 299.894531 178.949219 297.09375 C 180.574219 294.296875 184.15625 293.324219 186.960938 294.953125 C 245.800781 328.851562 321.273438 308.667969 355.230469 249.960938 C 356.847656 247.15625 360.445312 246.195312 363.242188 247.816406 C 366.050781 249.433594 367.011719 253.015625 365.390625 255.8125 C 340.429688 298.949219 294.984375 323.101562 248.328125 323.101562 Z M 248.328125 323.101562 "/>
<path style=" stroke:none;fill-rule:nonzero;fill:rgb(0%,0%,0%);fill-opacity:1;" d="M 228.816406 169.933594 C 226.789062 169.933594 224.816406 168.886719 223.730469 167.003906 C 197.859375 122.269531 140.328125 106.894531 95.519531 132.726562 C 92.710938 134.335938 89.125 133.382812 87.507812 130.582031 C 85.886719 127.78125 86.851562 124.203125 89.652344 122.585938 C 114.101562 108.507812 142.550781 104.761719 169.785156 112.039062 C 197.019531 119.320312 219.777344 136.765625 233.898438 161.15625 C 235.515625 163.960938 234.554688 167.539062 231.75 169.152344 C 230.816406 169.679688 229.816406 169.933594 228.816406 169.933594 Z M 228.816406 169.933594 "/>
<path style=" stroke:none;fill-rule:nonzero;fill:rgb(0%,0%,0%);fill-opacity:1;" d="M 45.363281 309.421875 C 43.332031 309.421875 41.363281 308.375 40.277344 306.496094 C 3.082031 242.203125 25.230469 159.699219 89.648438 122.582031 C 92.445312 120.960938 96.035156 121.917969 97.660156 124.722656 C 99.28125 127.527344 98.316406 131.105469 95.515625 132.71875 C 36.699219 166.613281 16.472656 241.941406 50.441406 300.640625 C 52.0625 303.445312 51.097656 307.023438 48.296875 308.636719 C 47.367188 309.171875 46.359375 309.421875 45.363281 309.421875 Z M 45.363281 309.421875 "/>
<path style=" stroke:none;fill-rule:nonzero;fill:rgb(0%,0%,0%);fill-opacity:1;" d="M 234.054688 266.492188 C 197.53125 266.492188 161.972656 247.601562 142.441406 213.84375 C 140.820312 211.039062 141.78125 207.460938 144.585938 205.847656 C 147.382812 204.230469 150.980469 205.183594 152.597656 207.988281 C 178.472656 252.707031 235.984375 268.089844 280.8125 242.257812 C 283.601562 240.648438 287.199219 241.605469 288.824219 244.398438 C 290.441406 247.203125 289.480469 250.78125 286.675781 252.394531 C 270.09375 261.953125 251.957031 266.492188 234.054688 266.492188 Z M 234.054688 266.492188 "/>
<path style=" stroke:none;fill-rule:nonzero;fill:rgb(0%,0%,0%);fill-opacity:1;" d="M 283.75 253.183594 C 281.71875 253.183594 279.75 252.136719 278.664062 250.257812 C 277.046875 247.453125 278.007812 243.878906 280.8125 242.261719 C 339.632812 208.375 359.863281 133.042969 325.902344 74.335938 C 324.28125 71.53125 325.242188 67.953125 328.046875 66.339844 C 330.84375 64.722656 334.433594 65.675781 336.058594 68.480469 C 373.253906 132.773438 351.101562 215.28125 286.675781 252.402344 C 285.757812 252.933594 284.746094 253.183594 283.75 253.183594 Z M 283.75 253.183594 "/>
<path style=" stroke:none;fill-rule:nonzero;fill:rgb(0%,0%,0%);fill-opacity:1;" d="M 76.714844 47.007812 C 73.46875 47.007812 70.847656 44.386719 70.847656 41.15625 L 70.847656 17.738281 C 70.847656 14.507812 73.46875 11.886719 76.714844 11.886719 C 79.957031 11.886719 82.582031 14.507812 82.582031 17.738281 L 82.582031 41.15625 C 82.582031 44.386719 79.957031 47.007812 76.714844 47.007812 Z M 76.714844 47.007812 "/>
<path style=" stroke:none;fill-rule:nonzero;fill:rgb(0%,0%,0%);fill-opacity:1;" d="M 82.582031 35.300781 L 70.847656 35.300781 C 67.605469 35.300781 64.984375 32.679688 64.984375 29.449219 C 64.984375 26.214844 67.605469 23.59375 70.847656 23.59375 L 82.582031 23.59375 C 85.824219 23.59375 88.445312 26.214844 88.445312 29.449219 C 88.445312 32.679688 85.824219 35.300781 82.582031 35.300781 Z M 82.582031 35.300781 "/>
<path style=" stroke:none;fill-rule:nonzero;fill:rgb(0%,0%,0%);fill-opacity:1;" d="M 288.085938 369.207031 C 284.839844 369.207031 282.21875 366.589844 282.21875 363.355469 L 282.21875 339.925781 C 282.21875 336.691406 284.839844 334.074219 288.085938 334.074219 C 291.328125 334.074219 293.949219 336.691406 293.949219 339.925781 L 293.949219 363.355469 C 293.949219 366.589844 291.328125 369.207031 288.085938 369.207031 Z M 288.085938 369.207031 "/>
<path style=" stroke:none;fill-rule:nonzero;fill:rgb(0%,0%,0%);fill-opacity:1;" d="M 293.949219 357.496094 L 282.21875 357.496094 C 278.976562 357.496094 276.351562 354.878906 276.351562 351.640625 C 276.351562 348.402344 278.976562 345.785156 282.21875 345.785156 L 293.949219 345.785156 C 297.195312 345.785156 299.816406 348.402344 299.816406 351.640625 C 299.816406 354.878906 297.195312 357.496094 293.949219 357.496094 Z M 293.949219 357.496094 "/>
<path style=" stroke:none;fill-rule:nonzero;fill:rgb(0%,0%,0%);fill-opacity:1;" d="M 223.496094 298.890625 C 220.253906 298.890625 217.632812 296.273438 217.632812 293.039062 L 217.632812 281.332031 C 217.632812 278.09375 220.253906 275.476562 223.496094 275.476562 C 226.742188 275.476562 229.363281 278.09375 229.363281 281.332031 L 229.363281 293.039062 C 229.363281 296.273438 226.742188 298.890625 223.496094 298.890625 Z M 223.496094 298.890625 "/>
<path style=" stroke:none;fill-rule:nonzero;fill:rgb(0%,0%,0%);fill-opacity:1;" d="M 229.363281 293.039062 L 217.632812 293.039062 C 214.386719 293.039062 211.765625 290.421875 211.765625 287.183594 C 211.765625 283.945312 214.386719 281.332031 217.632812 281.332031 L 229.363281 281.332031 C 232.605469 281.332031 235.230469 283.945312 235.230469 287.183594 C 235.230469 290.421875 232.605469 293.039062 229.363281 293.039062 Z M 229.363281 293.039062 "/>
<path style=" stroke:none;fill-rule:nonzero;fill:rgb(0%,0%,0%);fill-opacity:1;" d="M 59.101562 240.300781 C 55.855469 240.300781 53.234375 237.683594 53.234375 234.449219 L 53.234375 222.738281 C 53.234375 219.503906 55.855469 216.886719 59.101562 216.886719 C 62.34375 216.886719 64.964844 219.503906 64.964844 222.738281 L 64.964844 234.449219 C 64.964844 237.679688 62.34375 240.300781 59.101562 240.300781 Z M 59.101562 240.300781 "/>
<path style=" stroke:none;fill-rule:nonzero;fill:rgb(0%,0%,0%);fill-opacity:1;" d="M 64.964844 234.449219 L 53.234375 234.449219 C 49.992188 234.449219 47.367188 231.832031 47.367188 228.59375 C 47.367188 225.355469 49.992188 222.738281 53.234375 222.738281 L 64.964844 222.738281 C 68.210938 222.738281 70.832031 225.355469 70.832031 228.59375 C 70.832031 231.832031 68.210938 234.449219 64.964844 234.449219 Z M 64.964844 234.449219 "/>
<path style=" stroke:none;fill-rule:nonzero;fill:rgb(0%,0%,0%);fill-opacity:1;" d="M 264.574219 240.355469 C 261.332031 240.355469 258.679688 237.738281 258.679688 234.5 C 258.679688 231.261719 261.273438 228.644531 264.511719 228.644531 L 264.574219 228.644531 C 267.8125 228.644531 270.441406 231.261719 270.441406 234.5 C 270.441406 237.738281 267.8125 240.355469 264.574219 240.355469 Z M 264.574219 240.355469 "/>
<path style=" stroke:none;fill-rule:nonzero;fill:rgb(0%,0%,0%);fill-opacity:1;" d="M 246.960938 88.066406 C 243.714844 88.066406 241.066406 85.445312 241.066406 82.214844 C 241.066406 78.980469 243.65625 76.359375 246.894531 76.359375 L 246.960938 76.359375 C 250.199219 76.359375 252.824219 78.980469 252.824219 82.214844 C 252.824219 85.445312 250.199219 88.066406 246.960938 88.066406 Z M 246.960938 88.066406 "/>
<path style=" stroke:none;fill-rule:nonzero;fill:rgb(0%,0%,0%);fill-opacity:1;" d="M 100.175781 88.066406 C 96.933594 88.066406 94.28125 85.445312 94.28125 82.214844 C 94.28125 78.980469 96.875 76.359375 100.113281 76.359375 L 100.175781 76.359375 C 103.414062 76.359375 106.042969 78.980469 106.042969 82.214844 C 106.042969 85.445312 103.414062 88.066406 100.175781 88.066406 Z M 100.175781 88.066406 "/>
<path style=" stroke:none;fill-rule:nonzero;fill:rgb(0%,0%,0%);fill-opacity:1;" d="M 141.277344 310.667969 C 138.035156 310.667969 135.382812 308.054688 135.382812 304.816406 C 135.382812 301.578125 137.976562 298.960938 141.214844 298.960938 L 141.277344 298.960938 C 144.515625 298.960938 147.144531 301.578125 147.144531 304.816406 C 147.144531 308.054688 144.515625 310.667969 141.277344 310.667969 Z M 141.277344 310.667969 "/>
<path style=" stroke:none;fill-rule:nonzero;fill:rgb(0%,0%,0%);fill-opacity:1;" d="M 317.417969 146.628906 C 314.175781 146.628906 311.523438 144.007812 311.523438 140.773438 C 311.523438 137.542969 314.117188 134.921875 317.355469 134.921875 L 317.417969 134.921875 C 320.65625 134.921875 323.285156 137.542969 323.285156 140.773438 C 323.285156 144.007812 320.65625 146.628906 317.417969 146.628906 Z M 317.417969 146.628906 "/>
</g>
</svg>
