<?xml version="1.0" encoding="UTF-8"?>
<svg xmlns="http://www.w3.org/2000/svg" xmlns:xlink="http://www.w3.org/1999/xlink" width="375pt" height="374.999991pt" viewBox="0 0 375 374.999991" version="1.2">
<g id="surface1">
<path style=" stroke:none;fill-rule:nonzero;fill:rgb(27.059937%,15.289307%,62.748718%);fill-opacity:1;" d="M 258.011719 263.507812 C 256.363281 265.152344 254.6875 266.765625 252.988281 268.351562 C 251.285156 269.9375 249.554688 271.492188 247.800781 273.015625 C 246.046875 274.535156 244.269531 276.023438 242.46875 277.480469 C 240.667969 278.9375 238.84375 280.355469 237 281.742188 C 235.15625 283.128906 233.296875 284.476562 231.414062 285.789062 C 229.53125 287.097656 227.632812 288.371094 225.714844 289.609375 C 223.800781 290.84375 221.871094 292.039062 219.925781 293.191406 C 217.980469 294.347656 216.023438 295.460938 214.054688 296.535156 C 212.085938 297.609375 210.105469 298.636719 208.117188 299.625 C 206.128906 300.613281 204.132812 301.558594 202.128906 302.457031 C 200.125 303.359375 198.113281 304.214844 196.101562 305.023438 C 194.085938 305.835938 192.070312 306.597656 190.050781 307.316406 C 188.03125 308.035156 186.011719 308.710938 183.992188 309.335938 C 181.972656 309.960938 179.957031 310.539062 177.941406 311.070312 C 175.925781 311.601562 173.914062 312.082031 171.910156 312.519531 C 169.902344 312.953125 167.90625 313.339844 165.914062 313.675781 C 163.921875 314.015625 161.941406 314.300781 159.96875 314.542969 C 157.996094 314.78125 156.035156 314.972656 154.085938 315.113281 C 152.136719 315.253906 150.203125 315.347656 148.28125 315.386719 C 146.363281 315.429688 144.457031 315.421875 142.570312 315.367188 C 140.683594 315.308594 138.816406 315.203125 136.964844 315.046875 C 135.117188 314.890625 133.289062 314.6875 131.480469 314.433594 C 129.671875 314.179688 127.886719 313.875 126.125 313.523438 C 124.367188 313.171875 122.628906 312.773438 120.917969 312.324219 C 119.207031 311.875 117.527344 311.375 115.871094 310.832031 C 114.214844 310.289062 112.589844 309.695312 110.992188 309.054688 C 109.394531 308.414062 107.828125 307.730469 106.292969 306.996094 C 104.761719 306.265625 103.257812 305.488281 101.789062 304.664062 C 100.324219 303.839844 98.890625 302.96875 97.492188 302.058594 C 96.09375 301.144531 94.730469 300.1875 93.40625 299.1875 C 92.082031 298.1875 90.796875 297.144531 89.546875 296.058594 C 88.296875 294.972656 87.089844 293.847656 85.921875 292.679688 C 84.753906 291.511719 83.625 290.304688 82.539062 289.058594 C 81.449219 287.8125 80.40625 286.527344 79.402344 285.207031 C 78.402344 283.882812 77.445312 282.523438 76.527344 281.128906 C 75.613281 279.730469 74.746094 278.300781 73.917969 276.835938 C 73.09375 275.371094 72.316406 273.871094 71.582031 272.339844 C 70.847656 270.808594 70.160156 269.246094 69.519531 267.648438 C 68.878906 266.054688 68.285156 264.433594 67.742188 262.78125 C 67.195312 261.125 66.695312 259.445312 66.246094 257.738281 C 65.796875 256.03125 65.398438 254.296875 65.042969 252.539062 C 64.691406 250.78125 64.386719 249 64.132812 247.195312 C 63.878906 245.390625 63.675781 243.566406 63.519531 241.71875 C 63.363281 239.871094 63.257812 238.007812 63.199219 236.121094 C 63.140625 234.238281 63.136719 232.335938 63.175781 230.421875 C 63.21875 228.503906 63.3125 226.570312 63.453125 224.625 C 63.59375 222.679688 63.785156 220.722656 64.027344 218.753906 C 64.265625 216.785156 64.554688 214.804688 64.894531 212.816406 C 65.230469 210.828125 65.617188 208.832031 66.054688 206.832031 C 66.488281 204.828125 66.972656 202.820312 67.503906 200.808594 C 68.035156 198.796875 68.617188 196.785156 69.242188 194.769531 C 69.867188 192.753906 70.542969 190.734375 71.261719 188.71875 C 71.984375 186.703125 72.75 184.691406 73.5625 182.679688 C 74.371094 180.667969 75.230469 178.664062 76.132812 176.664062 C 77.035156 174.664062 77.980469 172.667969 78.96875 170.683594 C 79.957031 168.699219 80.988281 166.722656 82.0625 164.757812 C 83.140625 162.789062 84.253906 160.835938 85.410156 158.894531 C 86.570312 156.953125 87.765625 155.027344 89.003906 153.113281 C 90.242188 151.199219 91.515625 149.304688 92.828125 147.425781 C 94.144531 145.546875 95.496094 143.6875 96.882812 141.847656 C 98.269531 140.007812 99.691406 138.1875 101.152344 136.386719 C 102.609375 134.589844 104.101562 132.816406 105.625 131.066406 C 107.148438 129.3125 108.707031 127.589844 110.292969 125.886719 C 111.882812 124.1875 113.5 122.515625 115.148438 120.871094 C 116.792969 119.226562 118.46875 117.613281 120.171875 116.027344 C 121.875 114.441406 123.601562 112.886719 125.355469 111.367188 C 127.109375 109.84375 128.886719 108.355469 130.691406 106.898438 C 132.492188 105.441406 134.3125 104.023438 136.15625 102.636719 C 138 101.253906 139.863281 99.902344 141.746094 98.589844 C 143.628906 97.28125 145.527344 96.007812 147.441406 94.773438 C 149.359375 93.535156 151.289062 92.339844 153.234375 91.1875 C 155.179688 90.03125 157.136719 88.917969 159.105469 87.84375 C 161.074219 86.773438 163.054688 85.742188 165.042969 84.753906 C 167.03125 83.765625 169.027344 82.820312 171.03125 81.921875 C 173.035156 81.023438 175.042969 80.167969 177.058594 79.355469 C 179.074219 78.546875 181.089844 77.78125 183.109375 77.0625 C 185.128906 76.34375 187.148438 75.671875 189.167969 75.042969 C 191.1875 74.417969 193.203125 73.839844 195.21875 73.308594 C 197.234375 72.777344 199.242188 72.296875 201.25 71.863281 C 203.253906 71.425781 205.253906 71.039062 207.246094 70.703125 C 209.238281 70.367188 211.21875 70.078125 213.191406 69.835938 C 215.164062 69.597656 217.125 69.40625 219.074219 69.265625 C 221.023438 69.125 222.957031 69.035156 224.875 68.992188 C 226.796875 68.949219 228.699219 68.957031 230.589844 69.011719 C 232.476562 69.070312 234.34375 69.175781 236.191406 69.332031 C 238.042969 69.488281 239.871094 69.691406 241.679688 69.945312 C 243.488281 70.199219 245.269531 70.503906 247.03125 70.855469 C 248.792969 71.207031 250.527344 71.609375 252.238281 72.054688 C 253.949219 72.503906 255.632812 73.003906 257.289062 73.546875 C 258.945312 74.09375 260.570312 74.683594 262.167969 75.324219 C 263.765625 75.964844 265.328125 76.648438 266.863281 77.382812 C 268.398438 78.113281 269.898438 78.894531 271.367188 79.71875 C 272.835938 80.539062 274.269531 81.410156 275.667969 82.324219 C 277.066406 83.234375 278.425781 84.191406 279.75 85.191406 C 281.078125 86.191406 282.363281 87.234375 283.609375 88.320312 C 284.859375 89.40625 286.070312 90.53125 287.238281 91.699219 C 288.40625 92.867188 289.535156 94.074219 290.621094 95.320312 C 291.707031 96.566406 292.753906 97.851562 293.753906 99.171875 C 294.757812 100.496094 295.714844 101.855469 296.628906 103.25 C 297.542969 104.648438 298.414062 106.078125 299.238281 107.542969 C 300.0625 109.007812 300.84375 110.507812 301.578125 112.039062 C 302.3125 113.570312 303 115.136719 303.640625 116.730469 C 304.28125 118.324219 304.871094 119.945312 305.417969 121.601562 C 305.964844 123.253906 306.460938 124.933594 306.910156 126.640625 C 307.359375 128.347656 307.761719 130.082031 308.113281 131.839844 C 308.46875 133.597656 308.769531 135.378906 309.023438 137.183594 C 309.28125 138.988281 309.484375 140.816406 309.640625 142.660156 C 309.796875 144.507812 309.902344 146.375 309.960938 148.257812 C 310.015625 150.140625 310.023438 152.042969 309.980469 153.960938 C 309.9375 155.875 309.847656 157.808594 309.707031 159.753906 C 309.5625 161.699219 309.375 163.65625 309.132812 165.625 C 308.894531 167.59375 308.605469 169.574219 308.265625 171.5625 C 307.925781 173.550781 307.539062 175.546875 307.105469 177.546875 C 306.667969 179.550781 306.1875 181.558594 305.652344 183.570312 C 305.121094 185.582031 304.542969 187.59375 303.917969 189.609375 C 303.289062 191.628906 302.617188 193.644531 301.894531 195.660156 C 301.175781 197.675781 300.410156 199.6875 299.597656 201.699219 C 298.785156 203.710938 297.929688 205.714844 297.027344 207.714844 C 296.125 209.714844 295.179688 211.710938 294.191406 213.695312 C 293.199219 215.679688 292.167969 217.65625 291.09375 219.625 C 290.019531 221.589844 288.902344 223.542969 287.746094 225.484375 C 286.589844 227.425781 285.390625 229.355469 284.15625 231.265625 C 282.917969 233.179688 281.644531 235.074219 280.328125 236.953125 C 279.015625 238.832031 277.664062 240.691406 276.277344 242.53125 C 274.890625 244.375 273.464844 246.191406 272.007812 247.992188 C 270.550781 249.789062 269.058594 251.5625 267.535156 253.316406 C 266.007812 255.066406 264.453125 256.792969 262.863281 258.492188 C 261.277344 260.191406 259.660156 261.863281 258.011719 263.507812 Z M 258.011719 263.507812 "/>
<path style=" stroke:none;fill-rule:nonzero;fill:rgb(27.059937%,15.289307%,62.748718%);fill-opacity:1;" d="M 8.003906 266.75 C 2.484375 234.183594 10.425781 199.9375 23.957031 169.414062 C 30.648438 153.964844 39.027344 139.320312 48.367188 125.292969 C 53.050781 118.28125 57.980469 111.429688 63.253906 104.738281 C 65.945312 101.371094 68.488281 98.144531 71.730469 94.660156 C 74.4375 91.664062 77.25 88.628906 80.316406 85.472656 C 104.066406 61.324219 132.085938 39.519531 166.582031 26.976562 C 200.71875 13.976562 242.539062 15.183594 276.980469 32.851562 C 285.769531 37.382812 293.5 42.003906 302.144531 49.523438 C 309.914062 56.8125 316.113281 64.089844 321.777344 73.09375 C 333.203125 90.699219 337.980469 113.777344 335.636719 134.460938 C 333.433594 155.3125 325.847656 173.722656 316.746094 189.925781 C 307.554688 206.171875 296.613281 220.511719 284.980469 233.78125 C 282.066406 237.089844 279.09375 240.335938 276.089844 243.527344 L 271.167969 248.578125 C 269.496094 250.238281 267.824219 251.777344 266.132812 253.308594 C 259.394531 259.386719 252.414062 265.117188 244.835938 270.582031 C 237.230469 276.019531 229.140625 281.199219 219.535156 285.683594 C 209.863281 289.910156 198.722656 294.496094 182.53125 293.542969 C 174.570312 292.992188 165.25 290.085938 157.820312 284.765625 C 155.964844 283.464844 154.199219 282.054688 152.628906 280.578125 L 151.4375 279.457031 C 150.40625 278.449219 149.882812 277.828125 149.445312 277.339844 C 148.5625 276.3125 147.875 275.425781 147.222656 274.542969 C 144.675781 271.097656 142.820312 267.796875 141.242188 264.339844 C 134.925781 250.550781 134.742188 235.410156 137.667969 223.132812 C 143.878906 198.433594 157.992188 182.460938 170.539062 169.351562 C 180.402344 159.667969 187.574219 148.921875 188.960938 141.925781 C 189.707031 138.542969 189.246094 136.652344 188.804688 135.65625 C 188.742188 135.460938 188.519531 135.1875 188.878906 135.644531 C 189.109375 135.882812 188.859375 135.738281 190.53125 137.371094 L 189.566406 136.46875 C 189.84375 136.765625 190.15625 137.03125 190.496094 137.25 C 190.585938 137.339844 190.6875 137.414062 190.796875 137.460938 C 191.726562 138.074219 192.921875 138.238281 192.617188 138.128906 C 192.09375 137.847656 187.070312 138.707031 181.910156 141.183594 C 176.617188 143.578125 170.785156 147.089844 165.066406 151.09375 C 159.335938 155.109375 153.605469 159.675781 148.175781 164.4375 C 142.976562 169.011719 137.789062 174.210938 132.554688 179.691406 C 112.148438 201.136719 94.875 226.214844 91.714844 249.6875 C 90.105469 261.324219 92.183594 271.875 97.773438 282.246094 C 99.160156 284.839844 100.816406 287.398438 102.679688 289.902344 C 103.617188 291.160156 104.582031 292.394531 105.628906 293.625 L 108.289062 296.6875 C 112.167969 300.5 117.925781 304.699219 123.574219 307.964844 C 135.144531 314.648438 148.183594 318.921875 161.703125 320.34375 C 175.25 321.726562 189.3125 320.34375 203.261719 316.695312 C 231.300781 309.304688 257.941406 292.441406 281.9375 272.351562 C 305.808594 252.839844 326.664062 227.753906 343.894531 201.292969 C 352.433594 187.90625 359.707031 173.679688 364.8125 158.605469 C 370.105469 143.578125 372.757812 127.496094 371.664062 111.136719 C 375.898438 127.007812 375.613281 144.136719 372.738281 160.621094 C 369.71875 177.144531 364.070312 193.125 357.101562 208.417969 C 350.175781 223.765625 341.542969 238.246094 332.082031 252.152344 C 327.335938 259.105469 322.355469 265.890625 317.09375 272.535156 C 314.414062 275.890625 311.84375 279.09375 308.738281 282.53125 C 305.890625 285.648438 303.054688 288.785156 300.09375 291.816406 C 276.464844 315.976562 248.519531 337.890625 214.144531 350.664062 C 180.109375 363.847656 138.265625 363.050781 103.660156 345.640625 C 94.910156 341.246094 86.902344 336.453125 78.5625 329.429688 L 76.605469 327.640625 L 75.285156 326.355469 L 72.675781 323.746094 C 70.949219 321.976562 69.269531 320.113281 67.625 318.207031 C 64.355469 314.382812 61.25 310.285156 58.449219 305.875 C 46.886719 288.417969 41.726562 265.402344 43.867188 244.617188 C 45.832031 223.675781 53.308594 205.125 62.335938 188.851562 C 71.453125 172.523438 82.355469 158.117188 93.953125 144.804688 C 99.757812 138.269531 105.746094 131.546875 112.726562 125.238281 C 119.429688 119.09375 126.355469 113.320312 133.886719 107.816406 C 141.425781 102.324219 149.453125 97.089844 158.949219 92.507812 C 168.480469 88.152344 179.410156 83.519531 195.324219 83.90625 C 203.167969 84.152344 212.5 86.59375 220.296875 91.671875 L 223.125 93.617188 C 224.253906 94.488281 225.355469 95.386719 226.433594 96.320312 L 227.71875 97.492188 C 230.152344 99.8125 230.535156 100.457031 231.410156 101.492188 C 234.3125 105.132812 236.230469 108.367188 237.949219 111.84375 C 244.71875 125.585938 245.277344 140.863281 242.539062 153.339844 C 239.804688 165.964844 234.476562 176.207031 228.710938 185 C 222.921875 193.75 216.292969 201.367188 209.816406 207.867188 C 204.484375 213.105469 200.476562 217.699219 197.042969 222.601562 C 193.699219 227.378906 191.496094 232.039062 190.640625 235.511719 C 189.761719 239.042969 190.144531 241.070312 190.585938 242.222656 C 190.6875 242.480469 190.84375 242.746094 190.726562 242.582031 L 190.394531 242.1875 L 189.375 241.105469 L 188.925781 240.773438 C 188.144531 240.199219 186.859375 239.949219 187.015625 240.042969 C 187.246094 240.316406 192.183594 239.59375 197.28125 237.171875 C 202.527344 234.824219 208.347656 231.339844 214.050781 227.351562 C 219.773438 223.34375 225.503906 218.796875 230.933594 214.019531 L 234.910156 210.464844 L 238.683594 206.886719 L 246.617188 198.863281 C 267.097656 177.445312 284.519531 152.414062 287.980469 128.859375 C 289.726562 117.171875 287.742188 106.582031 282.351562 96.164062 C 279.753906 91.09375 275.613281 85.582031 271.78125 81.410156 C 268.382812 77.910156 262.40625 73.425781 256.847656 70.199219 C 245.332031 63.414062 232.300781 59.011719 218.78125 57.515625 C 205.246094 56.015625 191.183594 57.296875 177.214844 60.828125 C 149.140625 68.015625 122.414062 84.867188 98.410156 104.808594 C 74.410156 124.148438 54.050781 149.507812 37.226562 176.261719 C 20.757812 203.292969 8.582031 233.863281 8.003906 266.75 Z M 8.003906 266.75 "/>
<path style=" stroke:none;fill-rule:nonzero;fill:rgb(58.428955%,45.878601%,80.389404%);fill-opacity:1;" d="M 188.84375 209.675781 C 205.546875 197.214844 222.582031 181.636719 235.652344 165.488281 C 248.832031 149.507812 258.28125 130.445312 255.460938 117.886719 C 254.855469 114.695312 253.605469 111.667969 251.539062 108.617188 C 250.546875 107.101562 249.253906 105.570312 247.902344 104.121094 C 245.550781 101.691406 244.734375 100.976562 242.761719 99.199219 C 235.808594 93.238281 228.25 89.332031 219.910156 87.929688 C 203.214844 84.8125 182.929688 92.523438 164.714844 104.140625 C 146.367188 115.648438 128.980469 131.28125 112.597656 146.601562 C 96.773438 161.566406 83.394531 179.949219 74.695312 200.324219 C 65.972656 220.648438 62.34375 243.445312 66.539062 265.722656 C 70.574219 288.03125 82.355469 309 97.996094 326.484375 C 80.417969 311.007812 65.59375 291.195312 58.332031 267.757812 C 50.902344 244.414062 51.726562 218.476562 58.734375 194.710938 C 65.714844 170.816406 77.964844 148.703125 94.046875 129.28125 C 110.429688 111.074219 127.503906 94.375 148.027344 79.449219 C 158.304688 72.132812 169.464844 65.421875 182.164062 60.515625 C 194.773438 55.664062 209.324219 52.667969 224.382812 54.355469 C 239.445312 55.875 253.882812 62.433594 265.195312 71.144531 C 267.769531 73.085938 271.40625 76.203125 273.214844 77.910156 C 276.0625 80.558594 278.742188 83.382812 281.214844 86.601562 C 286.183594 92.917969 290.195312 100.65625 292.335938 108.871094 C 296.753906 125.570312 293.640625 141.925781 288.699219 155.148438 C 283.648438 168.578125 276.6875 180.078125 269.144531 190.667969 C 253.726562 211.855469 236.765625 229.214844 216.808594 246.019531 C 207.109375 254.199219 192.609375 252.96875 184.433594 243.277344 C 176.242188 233.597656 177.480469 219.117188 187.179688 210.957031 C 187.511719 210.683594 187.839844 210.410156 188.179688 210.152344 Z M 188.84375 209.675781 "/>
<path style=" stroke:none;fill-rule:nonzero;fill:rgb(58.428955%,45.878601%,80.389404%);fill-opacity:1;" d="M 190.824219 168.230469 C 174.121094 180.691406 157.085938 196.269531 144.015625 212.417969 C 130.835938 228.398438 121.386719 247.460938 124.207031 260.019531 C 124.8125 263.222656 126.0625 266.246094 128.136719 269.289062 C 129.128906 270.804688 130.414062 272.34375 131.773438 273.785156 C 134.132812 276.222656 134.941406 276.929688 136.925781 278.707031 C 143.867188 284.667969 151.4375 288.574219 159.765625 289.984375 C 176.460938 293.09375 196.75 285.382812 214.960938 273.765625 C 233.320312 262.257812 250.695312 246.617188 267.078125 231.304688 C 282.902344 216.339844 296.285156 197.949219 304.980469 177.582031 C 313.707031 157.257812 317.332031 134.460938 313.136719 112.183594 C 309.097656 89.875 297.3125 68.90625 281.671875 51.421875 C 299.25 66.898438 314.074219 86.710938 321.339844 110.148438 C 328.769531 133.492188 327.941406 159.421875 320.933594 183.195312 C 313.953125 207.089844 301.703125 229.203125 285.621094 248.625 C 269.238281 266.832031 252.164062 283.53125 231.640625 298.457031 C 221.363281 305.773438 210.203125 312.484375 197.503906 317.390625 C 184.894531 322.242188 170.347656 325.238281 155.285156 323.550781 C 140.230469 322.03125 125.796875 315.472656 114.472656 306.761719 C 111.910156 304.820312 108.261719 301.703125 106.453125 300.007812 C 103.605469 297.355469 100.925781 294.523438 98.464844 291.304688 C 93.484375 284.988281 89.480469 277.25 87.332031 269.035156 C 82.925781 252.335938 86.027344 235.988281 90.96875 222.757812 C 96.011719 209.328125 102.980469 197.828125 110.511719 187.246094 C 125.933594 166.058594 142.894531 148.691406 162.851562 131.886719 C 172.550781 123.707031 187.050781 124.9375 195.226562 134.628906 C 203.417969 144.308594 202.175781 158.789062 192.480469 166.949219 C 192.148438 167.222656 191.816406 167.496094 191.476562 167.753906 Z M 190.824219 168.230469 "/>
<path style=" stroke:none;fill-rule:nonzero;fill:rgb(0%,0%,0%);fill-opacity:1;" d="M 189.835938 124.769531 C 189.835938 125.375 189.773438 125.96875 189.65625 126.558594 C 189.539062 127.148438 189.367188 127.722656 189.136719 128.28125 C 188.90625 128.835938 188.621094 129.363281 188.285156 129.863281 C 187.953125 130.367188 187.570312 130.828125 187.144531 131.253906 C 186.71875 131.679688 186.253906 132.058594 185.753906 132.394531 C 185.25 132.730469 184.722656 133.011719 184.164062 133.242188 C 183.609375 133.472656 183.035156 133.644531 182.441406 133.765625 C 181.851562 133.882812 181.253906 133.941406 180.648438 133.941406 C 180.046875 133.941406 179.449219 133.882812 178.859375 133.765625 C 178.265625 133.644531 177.691406 133.472656 177.136719 133.242188 C 176.578125 133.011719 176.050781 132.730469 175.546875 132.394531 C 175.046875 132.058594 174.582031 131.679688 174.15625 131.253906 C 173.730469 130.828125 173.347656 130.367188 173.015625 129.863281 C 172.679688 129.363281 172.394531 128.835938 172.164062 128.28125 C 171.933594 127.722656 171.761719 127.148438 171.644531 126.558594 C 171.523438 125.96875 171.464844 125.375 171.464844 124.769531 C 171.464844 124.167969 171.523438 123.574219 171.644531 122.980469 C 171.761719 122.390625 171.933594 121.820312 172.164062 121.261719 C 172.394531 120.707031 172.679688 120.179688 173.015625 119.675781 C 173.347656 119.175781 173.730469 118.714844 174.15625 118.289062 C 174.582031 117.863281 175.046875 117.480469 175.546875 117.148438 C 176.050781 116.8125 176.578125 116.53125 177.136719 116.300781 C 177.691406 116.070312 178.265625 115.894531 178.859375 115.777344 C 179.449219 115.660156 180.046875 115.601562 180.648438 115.601562 C 181.253906 115.601562 181.851562 115.660156 182.441406 115.777344 C 183.035156 115.894531 183.609375 116.070312 184.164062 116.300781 C 184.722656 116.53125 185.25 116.8125 185.753906 117.148438 C 186.253906 117.480469 186.71875 117.863281 187.144531 118.289062 C 187.570312 118.714844 187.953125 119.175781 188.285156 119.675781 C 188.621094 120.179688 188.90625 120.707031 189.136719 121.261719 C 189.367188 121.820312 189.539062 122.390625 189.65625 122.980469 C 189.773438 123.574219 189.835938 124.167969 189.835938 124.769531 Z M 189.835938 124.769531 "/>
<path style=" stroke:none;fill-rule:nonzero;fill:rgb(0%,0%,0%);fill-opacity:1;" d="M 199.46875 174.75 C 199.46875 175.652344 199.378906 176.546875 199.203125 177.433594 C 199.027344 178.320312 198.765625 179.179688 198.417969 180.015625 C 198.074219 180.847656 197.648438 181.640625 197.144531 182.390625 C 196.644531 183.140625 196.074219 183.835938 195.433594 184.476562 C 194.792969 185.113281 194.097656 185.683594 193.34375 186.1875 C 192.59375 186.6875 191.800781 187.109375 190.964844 187.457031 C 190.128906 187.800781 189.265625 188.0625 188.378906 188.238281 C 187.492188 188.414062 186.597656 188.503906 185.691406 188.503906 C 184.789062 188.503906 183.890625 188.414062 183.003906 188.238281 C 182.117188 188.0625 181.257812 187.800781 180.421875 187.457031 C 179.585938 187.109375 178.789062 186.6875 178.039062 186.1875 C 177.285156 185.683594 176.589844 185.113281 175.953125 184.476562 C 175.3125 183.835938 174.742188 183.140625 174.238281 182.390625 C 173.734375 181.640625 173.3125 180.847656 172.964844 180.015625 C 172.617188 179.179688 172.359375 178.320312 172.179688 177.433594 C 172.003906 176.546875 171.917969 175.652344 171.917969 174.75 C 171.917969 173.847656 172.003906 172.953125 172.179688 172.066406 C 172.359375 171.183594 172.617188 170.320312 172.964844 169.488281 C 173.3125 168.652344 173.734375 167.859375 174.238281 167.109375 C 174.742188 166.359375 175.3125 165.664062 175.953125 165.027344 C 176.589844 164.386719 177.285156 163.816406 178.039062 163.316406 C 178.789062 162.8125 179.585938 162.390625 180.421875 162.042969 C 181.257812 161.699219 182.117188 161.4375 183.003906 161.261719 C 183.890625 161.085938 184.789062 160.996094 185.691406 160.996094 C 186.597656 160.996094 187.492188 161.085938 188.378906 161.261719 C 189.265625 161.4375 190.128906 161.699219 190.964844 162.042969 C 191.800781 162.390625 192.59375 162.8125 193.34375 163.316406 C 194.097656 163.816406 194.792969 164.386719 195.433594 165.027344 C 196.074219 165.664062 196.644531 166.359375 197.144531 167.109375 C 197.648438 167.859375 198.074219 168.652344 198.417969 169.488281 C 198.765625 170.320312 199.027344 171.183594 199.203125 172.066406 C 199.378906 172.953125 199.46875 173.847656 199.46875 174.75 Z M 199.46875 174.75 "/>
<path style=" stroke:none;fill-rule:nonzero;fill:rgb(0%,0%,0%);fill-opacity:1;" d="M 153.546875 216.011719 C 153.546875 216.613281 153.488281 217.207031 153.371094 217.800781 C 153.253906 218.390625 153.082031 218.964844 152.851562 219.519531 C 152.617188 220.074219 152.335938 220.605469 152 221.105469 C 151.664062 221.605469 151.285156 222.066406 150.859375 222.492188 C 150.433594 222.917969 149.96875 223.300781 149.46875 223.632812 C 148.964844 223.96875 148.4375 224.25 147.878906 224.480469 C 147.324219 224.710938 146.746094 224.886719 146.15625 225.003906 C 145.566406 225.121094 144.96875 225.179688 144.363281 225.179688 C 143.761719 225.179688 143.164062 225.121094 142.574219 225.003906 C 141.980469 224.886719 141.40625 224.710938 140.851562 224.480469 C 140.292969 224.25 139.765625 223.96875 139.261719 223.632812 C 138.761719 223.300781 138.296875 222.917969 137.871094 222.492188 C 137.445312 222.066406 137.0625 221.605469 136.730469 221.105469 C 136.394531 220.605469 136.109375 220.074219 135.878906 219.519531 C 135.648438 218.964844 135.476562 218.390625 135.359375 217.800781 C 135.238281 217.207031 135.179688 216.613281 135.179688 216.011719 C 135.179688 215.410156 135.238281 214.8125 135.359375 214.222656 C 135.476562 213.632812 135.648438 213.058594 135.878906 212.5 C 136.109375 211.945312 136.394531 211.417969 136.730469 210.917969 C 137.0625 210.414062 137.445312 209.953125 137.871094 209.527344 C 138.296875 209.101562 138.761719 208.722656 139.261719 208.386719 C 139.765625 208.050781 140.292969 207.769531 140.851562 207.539062 C 141.40625 207.308594 141.980469 207.136719 142.574219 207.019531 C 143.164062 206.898438 143.761719 206.839844 144.363281 206.839844 C 144.96875 206.839844 145.566406 206.898438 146.15625 207.019531 C 146.746094 207.136719 147.324219 207.308594 147.878906 207.539062 C 148.4375 207.769531 148.964844 208.050781 149.46875 208.386719 C 149.96875 208.722656 150.433594 209.101562 150.859375 209.527344 C 151.285156 209.953125 151.664062 210.414062 152 210.917969 C 152.335938 211.417969 152.617188 211.945312 152.851562 212.5 C 153.082031 213.058594 153.253906 213.632812 153.371094 214.222656 C 153.488281 214.8125 153.546875 215.410156 153.546875 216.011719 Z M 153.546875 216.011719 "/>
<path style=" stroke:none;fill-rule:nonzero;fill:rgb(0%,0%,0%);fill-opacity:1;" d="M 116.363281 138.523438 C 116.363281 138.824219 116.332031 139.125 116.273438 139.417969 C 116.214844 139.714844 116.128906 140 116.015625 140.277344 C 115.898438 140.558594 115.757812 140.820312 115.589844 141.070312 C 115.421875 141.320312 115.230469 141.554688 115.019531 141.765625 C 114.804688 141.980469 114.574219 142.167969 114.324219 142.335938 C 114.070312 142.503906 113.808594 142.644531 113.527344 142.761719 C 113.25 142.875 112.964844 142.960938 112.667969 143.019531 C 112.371094 143.078125 112.074219 143.109375 111.769531 143.109375 C 111.46875 143.109375 111.171875 143.078125 110.875 143.019531 C 110.578125 142.960938 110.292969 142.875 110.015625 142.761719 C 109.734375 142.644531 109.472656 142.503906 109.21875 142.335938 C 108.96875 142.167969 108.738281 141.980469 108.523438 141.765625 C 108.3125 141.554688 108.121094 141.320312 107.953125 141.070312 C 107.785156 140.820312 107.644531 140.558594 107.527344 140.277344 C 107.414062 140 107.328125 139.714844 107.269531 139.417969 C 107.207031 139.125 107.179688 138.824219 107.179688 138.523438 C 107.179688 138.222656 107.207031 137.925781 107.269531 137.628906 C 107.328125 137.335938 107.414062 137.046875 107.527344 136.769531 C 107.644531 136.492188 107.785156 136.226562 107.953125 135.976562 C 108.121094 135.726562 108.3125 135.496094 108.523438 135.28125 C 108.738281 135.070312 108.96875 134.878906 109.21875 134.710938 C 109.472656 134.546875 109.734375 134.402344 110.015625 134.289062 C 110.292969 134.171875 110.578125 134.085938 110.875 134.027344 C 111.171875 133.96875 111.46875 133.941406 111.769531 133.941406 C 112.074219 133.941406 112.371094 133.96875 112.667969 134.027344 C 112.964844 134.085938 113.25 134.171875 113.527344 134.289062 C 113.808594 134.402344 114.070312 134.546875 114.324219 134.710938 C 114.574219 134.878906 114.804688 135.070312 115.019531 135.28125 C 115.230469 135.496094 115.421875 135.726562 115.589844 135.976562 C 115.757812 136.226562 115.898438 136.492188 116.015625 136.769531 C 116.128906 137.046875 116.214844 137.335938 116.273438 137.628906 C 116.332031 137.925781 116.363281 138.222656 116.363281 138.523438 Z M 116.363281 138.523438 "/>
<path style=" stroke:none;fill-rule:nonzero;fill:rgb(0%,0%,0%);fill-opacity:1;" d="M 263.753906 101.398438 C 263.753906 102.304688 263.667969 103.195312 263.492188 104.082031 C 263.3125 104.96875 263.050781 105.828125 262.707031 106.664062 C 262.359375 107.496094 261.9375 108.289062 261.433594 109.039062 C 260.929688 109.792969 260.359375 110.484375 259.71875 111.125 C 259.082031 111.761719 258.386719 112.332031 257.632812 112.835938 C 256.878906 113.335938 256.085938 113.761719 255.25 114.105469 C 254.414062 114.453125 253.554688 114.710938 252.667969 114.890625 C 251.78125 115.066406 250.882812 115.152344 249.980469 115.152344 C 249.074219 115.152344 248.179688 115.066406 247.292969 114.890625 C 246.40625 114.710938 245.542969 114.453125 244.707031 114.105469 C 243.871094 113.761719 243.078125 113.335938 242.324219 112.835938 C 241.574219 112.332031 240.878906 111.761719 240.238281 111.125 C 239.597656 110.484375 239.027344 109.792969 238.523438 109.039062 C 238.023438 108.289062 237.597656 107.496094 237.253906 106.664062 C 236.90625 105.828125 236.644531 104.96875 236.46875 104.082031 C 236.292969 103.195312 236.203125 102.304688 236.203125 101.398438 C 236.203125 100.496094 236.292969 99.601562 236.46875 98.714844 C 236.644531 97.832031 236.90625 96.972656 237.253906 96.136719 C 237.597656 95.300781 238.023438 94.507812 238.523438 93.757812 C 239.027344 93.007812 239.597656 92.3125 240.238281 91.675781 C 240.878906 91.035156 241.574219 90.464844 242.324219 89.964844 C 243.078125 89.460938 243.871094 89.039062 244.707031 88.695312 C 245.542969 88.347656 246.40625 88.085938 247.292969 87.910156 C 248.179688 87.734375 249.074219 87.648438 249.980469 87.648438 C 250.882812 87.648438 251.78125 87.734375 252.667969 87.910156 C 253.554688 88.085938 254.414062 88.347656 255.25 88.695312 C 256.085938 89.039062 256.878906 89.460938 257.632812 89.964844 C 258.386719 90.464844 259.082031 91.035156 259.71875 91.675781 C 260.359375 92.3125 260.929688 93.007812 261.433594 93.757812 C 261.9375 94.507812 262.359375 95.300781 262.707031 96.136719 C 263.050781 96.972656 263.3125 97.832031 263.492188 98.714844 C 263.667969 99.601562 263.753906 100.496094 263.753906 101.398438 Z M 263.753906 101.398438 "/>
<path style=" stroke:none;fill-rule:nonzero;fill:rgb(0%,0%,0%);fill-opacity:1;" d="M 135.179688 266.4375 C 135.179688 266.738281 135.152344 267.039062 135.09375 267.332031 C 135.035156 267.628906 134.945312 267.914062 134.832031 268.195312 C 134.714844 268.472656 134.574219 268.734375 134.40625 268.984375 C 134.238281 269.234375 134.050781 269.46875 133.835938 269.679688 C 133.621094 269.894531 133.390625 270.082031 133.140625 270.25 C 132.890625 270.417969 132.625 270.558594 132.347656 270.675781 C 132.066406 270.789062 131.78125 270.875 131.484375 270.933594 C 131.1875 270.992188 130.890625 271.023438 130.589844 271.023438 C 130.289062 271.023438 129.988281 270.992188 129.691406 270.933594 C 129.398438 270.875 129.109375 270.789062 128.832031 270.675781 C 128.554688 270.558594 128.289062 270.417969 128.039062 270.25 C 127.789062 270.082031 127.554688 269.894531 127.34375 269.679688 C 127.128906 269.46875 126.9375 269.234375 126.769531 268.984375 C 126.605469 268.734375 126.460938 268.472656 126.347656 268.195312 C 126.230469 267.914062 126.144531 267.628906 126.085938 267.332031 C 126.027344 267.039062 125.996094 266.738281 125.996094 266.4375 C 125.996094 266.136719 126.027344 265.839844 126.085938 265.542969 C 126.144531 265.25 126.230469 264.960938 126.347656 264.683594 C 126.460938 264.40625 126.605469 264.140625 126.769531 263.890625 C 126.9375 263.640625 127.128906 263.410156 127.34375 263.199219 C 127.554688 262.984375 127.789062 262.792969 128.039062 262.628906 C 128.289062 262.460938 128.554688 262.320312 128.832031 262.203125 C 129.109375 262.089844 129.398438 262 129.691406 261.941406 C 129.988281 261.882812 130.289062 261.855469 130.589844 261.855469 C 130.890625 261.855469 131.1875 261.882812 131.484375 261.941406 C 131.78125 262 132.066406 262.089844 132.347656 262.203125 C 132.625 262.320312 132.890625 262.460938 133.140625 262.628906 C 133.390625 262.792969 133.621094 262.984375 133.835938 263.199219 C 134.050781 263.410156 134.238281 263.640625 134.40625 263.890625 C 134.574219 264.140625 134.714844 264.40625 134.832031 264.683594 C 134.945312 264.960938 135.035156 265.25 135.09375 265.542969 C 135.152344 265.839844 135.179688 266.136719 135.179688 266.4375 Z M 135.179688 266.4375 "/>
<path style=" stroke:none;fill-rule:nonzero;fill:rgb(0%,0%,0%);fill-opacity:1;" d="M 227.019531 238.933594 C 227.019531 239.835938 226.929688 240.730469 226.753906 241.617188 C 226.578125 242.5 226.316406 243.359375 225.972656 244.195312 C 225.625 245.03125 225.199219 245.824219 224.699219 246.574219 C 224.195312 247.324219 223.625 248.019531 222.984375 248.65625 C 222.34375 249.296875 221.648438 249.867188 220.898438 250.367188 C 220.144531 250.871094 219.351562 251.292969 218.515625 251.640625 C 217.679688 251.984375 216.820312 252.246094 215.929688 252.421875 C 215.042969 252.597656 214.148438 252.6875 213.242188 252.6875 C 212.339844 252.6875 211.445312 252.597656 210.554688 252.421875 C 209.667969 252.246094 208.808594 251.984375 207.972656 251.640625 C 207.136719 251.292969 206.34375 250.871094 205.589844 250.367188 C 204.839844 249.867188 204.140625 249.296875 203.503906 248.65625 C 202.863281 248.019531 202.292969 247.324219 201.789062 246.574219 C 201.289062 245.824219 200.863281 245.03125 200.515625 244.195312 C 200.171875 243.363281 199.910156 242.5 199.734375 241.617188 C 199.554688 240.730469 199.46875 239.835938 199.46875 238.933594 C 199.46875 238.03125 199.554688 237.136719 199.734375 236.25 C 199.910156 235.363281 200.171875 234.503906 200.515625 233.667969 C 200.863281 232.835938 201.289062 232.042969 201.789062 231.292969 C 202.292969 230.539062 202.863281 229.847656 203.503906 229.207031 C 204.140625 228.570312 204.839844 228 205.589844 227.496094 C 206.34375 226.996094 207.136719 226.570312 207.972656 226.226562 C 208.808594 225.878906 209.667969 225.621094 210.554688 225.445312 C 211.445312 225.265625 212.339844 225.179688 213.242188 225.179688 C 214.148438 225.179688 215.042969 225.265625 215.929688 225.445312 C 216.820312 225.621094 217.679688 225.878906 218.515625 226.226562 C 219.351562 226.570312 220.144531 226.996094 220.898438 227.496094 C 221.648438 228 222.34375 228.570312 222.984375 229.207031 C 223.625 229.847656 224.195312 230.539062 224.699219 231.292969 C 225.199219 232.042969 225.625 232.835938 225.972656 233.667969 C 226.316406 234.503906 226.578125 235.363281 226.753906 236.25 C 226.929688 237.136719 227.019531 238.03125 227.019531 238.933594 Z M 227.019531 238.933594 "/>
</g>
</svg>
